<svg xmlns="http://www.w3.org/2000/svg" width="193" height="50" viewBox="0 0 193 50" fill="none">
  <g clip-path="url(#clip0_425_53)">
    <path d="M99.7903 42.7242V43.2833H96.3971L96.5059 43.1731V48.7921L96.3971 48.682H99.9193V49.2492H95.9014V42.7283H99.7903V42.7242ZM99.2382 45.6705V46.2295H96.3648V45.6705H99.2382Z" fill="#F7FCFB"/>
    <path d="M105.275 42.8712C105.674 43.0425 106.021 43.2751 106.319 43.5771C106.617 43.8791 106.855 44.2341 107.024 44.6462C107.193 45.0584 107.282 45.5072 107.282 45.9888C107.282 46.4703 107.197 46.911 107.024 47.3231C106.851 47.7353 106.617 48.0903 106.319 48.3923C106.021 48.6942 105.67 48.9309 105.275 49.1023C104.876 49.2778 104.445 49.3634 103.981 49.3634C103.518 49.3634 103.095 49.2778 102.692 49.1023C102.293 48.9309 101.942 48.6942 101.64 48.3923C101.342 48.0903 101.104 47.7353 100.935 47.3231C100.765 46.911 100.677 46.4662 100.677 45.9888C100.677 45.5113 100.761 45.0584 100.935 44.6462C101.108 44.2341 101.342 43.8791 101.64 43.5771C101.938 43.2751 102.289 43.0425 102.692 42.8712C103.091 42.6998 103.522 42.6141 103.981 42.6141C104.441 42.6141 104.876 42.6998 105.275 42.8712ZM102.934 43.422C102.611 43.5649 102.325 43.7607 102.083 44.0097C101.841 44.2586 101.652 44.5483 101.511 44.887C101.37 45.2257 101.301 45.5929 101.301 45.9888C101.301 46.3846 101.37 46.7437 101.511 47.0824C101.652 47.4211 101.841 47.7149 102.083 47.9638C102.325 48.2168 102.607 48.4086 102.934 48.5473C103.256 48.6861 103.607 48.7554 103.981 48.7554C104.356 48.7554 104.703 48.6861 105.029 48.5473C105.352 48.4086 105.638 48.2127 105.875 47.9638C106.117 47.7108 106.307 47.417 106.448 47.0824C106.589 46.7437 106.657 46.3805 106.657 45.9888C106.657 45.597 106.589 45.2257 106.448 44.887C106.307 44.5483 106.117 44.2545 105.875 44.0097C105.634 43.7607 105.352 43.5649 105.029 43.422C104.703 43.2792 104.356 43.2098 103.981 43.2098C103.607 43.2098 103.26 43.2792 102.934 43.422ZM103.981 46.8416C104.074 46.7722 104.147 46.7192 104.203 46.6743C104.272 46.6294 104.348 46.5764 104.433 46.5152L106.875 49.6654L106.424 50L103.981 46.8416Z" fill="#F7FCFB"/>
    <path d="M113.476 46.8987C113.476 47.2456 113.42 47.572 113.303 47.874C113.186 48.176 113.021 48.4371 112.807 48.6534C112.594 48.8697 112.336 49.0411 112.041 49.1676C111.743 49.2941 111.417 49.3594 111.054 49.3594C110.691 49.3594 110.361 49.2941 110.063 49.1676C109.764 49.0411 109.507 48.8697 109.293 48.6534C109.079 48.4371 108.914 48.176 108.797 47.874C108.68 47.572 108.624 47.2456 108.624 46.8987V42.7283H109.22V46.8539C109.22 47.1273 109.265 47.3803 109.349 47.6169C109.434 47.8536 109.559 48.0536 109.716 48.2249C109.873 48.3963 110.067 48.531 110.292 48.6289C110.518 48.7269 110.772 48.7758 111.054 48.7758C111.336 48.7758 111.578 48.7269 111.8 48.6289C112.021 48.531 112.215 48.3963 112.376 48.2249C112.537 48.0536 112.662 47.8536 112.747 47.6169C112.831 47.3803 112.876 47.1273 112.876 46.8539V42.7283H113.472V46.8987H113.476Z" fill="#F7FCFB"/>
    <path d="M115.277 42.7242H115.882V49.2451H115.277V42.7242Z" fill="#F7FCFB"/>
    <path d="M118.22 46.1357H119.888C120.089 46.1357 120.275 46.103 120.448 46.0336C120.621 45.9643 120.771 45.8704 120.899 45.7439C121.028 45.6215 121.129 45.4705 121.198 45.2951C121.266 45.1196 121.302 44.9237 121.302 44.7034C121.302 44.483 121.266 44.2912 121.198 44.1117C121.125 43.9362 121.028 43.7852 120.904 43.6628C120.779 43.5404 120.629 43.4424 120.452 43.3812C120.279 43.3159 120.094 43.2833 119.896 43.2833H118.244L118.353 43.1731V49.2492H117.748V42.7283H119.961C120.243 42.7283 120.501 42.7732 120.742 42.8671C120.98 42.9609 121.186 43.0915 121.363 43.267C121.536 43.4384 121.673 43.6506 121.774 43.8954C121.875 44.1402 121.927 44.4096 121.927 44.6993C121.927 44.989 121.875 45.2502 121.774 45.495C121.673 45.7398 121.536 45.948 121.363 46.1234C121.19 46.2948 120.984 46.4335 120.742 46.5315C120.505 46.6294 120.247 46.6784 119.973 46.6784H118.22V46.1397V46.1357Z" fill="#F7FCFB"/>
    <path d="M126.13 48.9146L124.002 44.1566L124.067 44.1484L123.16 49.2492H122.543L123.728 42.6426H123.93L126.267 47.9679H126.174L128.516 42.6426H128.717L129.91 49.2492H129.294L128.375 44.1484L128.439 44.1566L126.311 48.9146H126.126H126.13Z" fill="#F7FCFB"/>
    <path d="M135.157 42.7242V43.2833H131.764L131.873 43.1731V48.7921L131.764 48.682H135.286V49.2492H131.269V42.7283H135.157V42.7242ZM134.605 45.6705V46.2295H131.732V45.6705H134.605Z" fill="#F7FCFB"/>
    <path d="M136.689 42.6426H136.89L141.203 48.0128L141.138 48.0413V42.7283H141.735V49.3349H141.533L137.229 43.9648L137.293 43.9484V49.2533H136.689V42.6467V42.6426Z" fill="#F7FCFB"/>
    <path d="M142.875 43.2833V42.7242H147.574V43.2833H142.875ZM144.93 43.1446H145.527V49.2492H144.93V43.1446Z" fill="#F7FCFB"/>
    <path d="M99.7903 42.7242V43.2833H96.3971L96.5059 43.1731V48.7921L96.3971 48.682H99.9193V49.2492H95.9014V42.7283H99.7903V42.7242ZM99.2382 45.6705V46.2295H96.3648V45.6705H99.2382Z" fill="#171210"/>
    <path d="M105.275 42.8712C105.674 43.0425 106.021 43.2751 106.319 43.5771C106.617 43.8791 106.855 44.2341 107.024 44.6462C107.193 45.0584 107.282 45.5072 107.282 45.9888C107.282 46.4703 107.197 46.911 107.024 47.3231C106.851 47.7353 106.617 48.0903 106.319 48.3923C106.021 48.6942 105.67 48.9309 105.275 49.1023C104.876 49.2778 104.445 49.3634 103.981 49.3634C103.518 49.3634 103.095 49.2778 102.692 49.1023C102.293 48.9309 101.942 48.6942 101.64 48.3923C101.342 48.0903 101.104 47.7353 100.935 47.3231C100.765 46.911 100.677 46.4662 100.677 45.9888C100.677 45.5113 100.761 45.0584 100.935 44.6462C101.108 44.2341 101.342 43.8791 101.64 43.5771C101.938 43.2751 102.289 43.0425 102.692 42.8712C103.091 42.6998 103.522 42.6141 103.981 42.6141C104.441 42.6141 104.876 42.6998 105.275 42.8712ZM102.934 43.422C102.611 43.5649 102.325 43.7607 102.083 44.0097C101.841 44.2586 101.652 44.5483 101.511 44.887C101.37 45.2257 101.301 45.5929 101.301 45.9888C101.301 46.3846 101.37 46.7437 101.511 47.0824C101.652 47.4211 101.841 47.7149 102.083 47.9638C102.325 48.2168 102.607 48.4086 102.934 48.5473C103.256 48.6861 103.607 48.7554 103.981 48.7554C104.356 48.7554 104.703 48.6861 105.029 48.5473C105.352 48.4086 105.638 48.2127 105.875 47.9638C106.117 47.7108 106.307 47.417 106.448 47.0824C106.589 46.7437 106.657 46.3805 106.657 45.9888C106.657 45.597 106.589 45.2257 106.448 44.887C106.307 44.5483 106.117 44.2545 105.875 44.0097C105.634 43.7607 105.352 43.5649 105.029 43.422C104.703 43.2792 104.356 43.2098 103.981 43.2098C103.607 43.2098 103.26 43.2792 102.934 43.422ZM103.981 46.8416C104.074 46.7722 104.147 46.7192 104.203 46.6743C104.272 46.6294 104.348 46.5764 104.433 46.5152L106.875 49.6654L106.424 50L103.981 46.8416Z" fill="#171210"/>
    <path d="M113.476 46.8987C113.476 47.2456 113.42 47.572 113.303 47.874C113.186 48.176 113.021 48.4371 112.807 48.6534C112.594 48.8697 112.336 49.0411 112.041 49.1676C111.743 49.2941 111.417 49.3594 111.054 49.3594C110.691 49.3594 110.361 49.2941 110.063 49.1676C109.764 49.0411 109.507 48.8697 109.293 48.6534C109.079 48.4371 108.914 48.176 108.797 47.874C108.68 47.572 108.624 47.2456 108.624 46.8987V42.7283H109.22V46.8539C109.22 47.1273 109.265 47.3803 109.349 47.6169C109.434 47.8536 109.559 48.0536 109.716 48.2249C109.873 48.3963 110.067 48.531 110.292 48.6289C110.518 48.7269 110.772 48.7758 111.054 48.7758C111.336 48.7758 111.578 48.7269 111.8 48.6289C112.021 48.531 112.215 48.3963 112.376 48.2249C112.537 48.0536 112.662 47.8536 112.747 47.6169C112.831 47.3803 112.876 47.1273 112.876 46.8539V42.7283H113.472V46.8987H113.476Z" fill="#171210"/>
    <path d="M115.277 42.7242H115.882V49.2451H115.277V42.7242Z" fill="#171210"/>
    <path d="M118.22 46.1357H119.888C120.089 46.1357 120.275 46.103 120.448 46.0336C120.621 45.9643 120.771 45.8704 120.899 45.7439C121.028 45.6215 121.129 45.4705 121.198 45.2951C121.266 45.1196 121.302 44.9237 121.302 44.7034C121.302 44.483 121.266 44.2912 121.198 44.1117C121.125 43.9362 121.028 43.7852 120.904 43.6628C120.779 43.5404 120.629 43.4424 120.452 43.3812C120.279 43.3159 120.094 43.2833 119.896 43.2833H118.244L118.353 43.1731V49.2492H117.748V42.7283H119.961C120.243 42.7283 120.501 42.7732 120.742 42.8671C120.98 42.9609 121.186 43.0915 121.363 43.267C121.536 43.4384 121.673 43.6506 121.774 43.8954C121.875 44.1402 121.927 44.4096 121.927 44.6993C121.927 44.989 121.875 45.2502 121.774 45.495C121.673 45.7398 121.536 45.948 121.363 46.1234C121.19 46.2948 120.984 46.4335 120.742 46.5315C120.505 46.6294 120.247 46.6784 119.973 46.6784H118.22V46.1397V46.1357Z" fill="#171210"/>
    <path d="M126.13 48.9146L124.002 44.1566L124.067 44.1484L123.16 49.2492H122.543L123.728 42.6426H123.93L126.267 47.9679H126.174L128.516 42.6426H128.717L129.91 49.2492H129.294L128.375 44.1484L128.439 44.1566L126.311 48.9146H126.126H126.13Z" fill="#171210"/>
    <path d="M135.157 42.7242V43.2833H131.764L131.873 43.1731V48.7921L131.764 48.682H135.286V49.2492H131.269V42.7283H135.157V42.7242ZM134.605 45.6705V46.2295H131.732V45.6705H134.605Z" fill="#171210"/>
    <path d="M136.689 42.6426H136.89L141.203 48.0128L141.138 48.0413V42.7283H141.735V49.3349H141.533L137.229 43.9648L137.293 43.9484V49.2533H136.689V42.6467V42.6426Z" fill="#171210"/>
    <path d="M142.875 43.2833V42.7242H147.574V43.2833H142.875ZM144.93 43.1446H145.527V49.2492H144.93V43.1446Z" fill="#171210"/>
    <path d="M11.4449 2.45245C9.91755 5.41907 9.11559 8.66726 9.04305 11.9358C8.92215 16.9101 10.4979 21.913 13.7622 25.9977L4.72693 35.1465C-0.229948 28.9439 -1.2858 20.6113 1.5513 13.4987C2.59104 10.8871 4.15468 8.44282 6.24624 6.32497C7.81793 4.73353 9.57097 3.44813 11.4489 2.45245H11.4449Z" fill="#EC3A24"/>
    <path d="M40.227 31.5922C39.2437 33.4938 37.9743 35.2689 36.4026 36.8603C34.311 38.9782 31.8971 40.5574 29.3179 41.6143C22.2291 44.5156 13.9112 43.4016 7.76953 38.2641L16.8048 29.1153C20.863 32.5145 25.8803 34.1508 30.8613 34.0284C34.0894 33.9508 37.2972 33.1388 40.227 31.5963V31.5922Z" fill="#EC3A24"/>
    <path d="M37.7849 7.86743C43.314 14.6413 44.1241 24.039 40.2311 31.5882H40.2271C37.2973 33.1388 34.0894 33.9508 30.8614 34.0243C30.8856 33.0082 30.8412 31.9881 30.7203 30.9761C30.2569 26.9689 28.6892 23.0719 26.0093 19.791L37.7849 7.86743Z" fill="#B12C1B"/>
    <path d="M34.7785 4.8437C34.7543 4.82738 34.7301 4.81106 34.7019 4.79473L22.9303 16.7143C19.5491 13.9435 15.5272 12.3766 11.4207 12.0093C10.6268 11.9399 9.83285 11.9154 9.04297 11.9358C9.11954 8.66726 9.92151 5.41907 11.4448 2.45245H11.4489C18.8439 -1.46496 28.0282 -0.685556 34.7059 4.78657C34.7301 4.8029 34.7543 4.81922 34.7785 4.83962V4.8437Z" fill="#B12C1B"/>
    <path d="M19.7306 7.78583C19.7467 7.81031 19.7628 7.8348 19.779 7.86336C19.7588 7.84296 19.7427 7.81847 19.7266 7.78991H19.7306V7.78583Z" fill="#EC3A24"/>
    <path d="M152.426 7.38995H146.816V35.5953H152.426V7.38995Z" fill="#EC3B25"/>
    <path d="M104.832 7.38995C97.0865 7.38995 90.8037 13.7476 90.8037 21.5946C90.8037 29.4417 97.0824 35.7993 104.832 35.7993C112.582 35.7993 118.86 29.4417 118.86 21.5946C118.86 13.7476 112.582 7.38995 104.832 7.38995ZM104.832 30.266C100.101 30.266 96.2643 26.3812 96.2643 21.5906C96.2643 16.7999 100.101 12.9151 104.832 12.9151C109.563 12.9151 113.4 16.7999 113.4 21.5906C113.4 26.3812 109.563 30.266 104.832 30.266Z" fill="#EC3B25"/>
    <path d="M79.6929 24.3532C78.5524 27.7891 75.3445 30.266 71.5684 30.266C66.8372 30.266 63.0007 26.3854 63.0007 21.5906C63.0007 16.7959 66.8332 12.9152 71.5684 12.9152C75.2679 12.9152 78.4234 15.2942 79.6244 18.6281H85.2865C83.9405 12.2011 78.3106 7.38593 71.5684 7.38593C63.8188 7.38593 57.54 13.7436 57.54 21.5865C57.54 29.4295 63.8188 35.7912 71.5684 35.7912C78.3791 35.7912 84.0573 30.87 85.3268 24.3491H79.6929V24.3532Z" fill="#EC3B25"/>
    <path d="M180.293 24.3532C179.153 27.7891 175.945 30.266 172.169 30.266C167.438 30.266 163.601 26.3854 163.601 21.5906C163.601 16.7959 167.434 12.9152 172.169 12.9152C175.869 12.9152 179.024 15.2942 180.225 18.6281H185.887C184.541 12.2011 178.911 7.38593 172.169 7.38593C164.419 7.38593 158.141 13.7436 158.141 21.5865C158.141 29.4295 164.419 35.7912 172.169 35.7912C178.98 35.7912 184.658 30.87 185.927 24.3491H180.293V24.3532Z" fill="#EC3B25"/>
    <path d="M130.217 10.3403V7.39001H124.607V35.5953H130.217V21.6926H130.237C130.237 21.6273 130.233 21.562 130.233 21.4927C130.233 16.7347 134.041 12.8785 138.74 12.8785V7.38593C135.528 7.38593 132.574 8.4877 130.221 10.3362L130.217 10.3403Z" fill="#EC3B25"/>
    <path d="M186.947 40.231H186.004V39.5168H188.692V40.231H187.745V43.0058H186.947V40.231Z" fill="#EC3A24"/>
    <path d="M190.86 42.8466L189.998 41.2429L189.736 43.0058H188.934L189.49 39.4556H189.732L190.965 41.598L192.202 39.4556H192.444L193 43.0058H192.198L191.936 41.2429L191.078 42.8466H190.86Z" fill="#EC3A24"/>
  </g>
  <defs>
    <clipPath id="clip0_425_53">
      <rect width="193" height="50" fill="white"/>
    </clipPath>
  </defs>
</svg>
